%
M48
INCH,TZ
;FILE_FORMAT=2:6
T01C0.023622
T02C0.036000
T03C0.039370
T04C0.040000
T05C0.043307
T06C0.051181
T07C0.062992
%
T01
X01037795Y00861457
X02061417Y01294528
X01972835Y00915591
X01923622Y00881142
X02848819Y01117362
X03183465Y01412638
X03405000Y01372480
X03437500Y01322480
X03437500Y01222480
X03798622Y01004173
X03813386Y00861457
X04088976Y00979567
X04049606Y01255157
X04049606Y01392953
X04325000Y01497480
X04362500Y01497480
X04400000Y01497480
X04437500Y01497480
X04475000Y01497480
X04475000Y01534980
X04437500Y01534980
X04400000Y01534980
X04362500Y01534980
X04462500Y01722480
X04462500Y01759980
X04487500Y01784980
X04562500Y01747480
X04586713Y01722480
X04537500Y01722480
X04587500Y01772480
X04450000Y01859980
X04412500Y01859980
X04375000Y01859980
X04475000Y01922480
X04437500Y01972480
X04612500Y02097480
X04687500Y02034980
X04725000Y02034980
X04762500Y02034980
X04761417Y02321693
X04412500Y02247480
X04175000Y01734980
X04735630Y01622480
X04735630Y01584980
X04775787Y01584980
X04775787Y01622480
X03478740Y02062244
X03419685Y02121299
X03360630Y02062244
X03124409Y01885079
X03045669Y01609488
X02650000Y01972480
X02494488Y02022874
X02396063Y02081929
X02297638Y02278780
X02000000Y02084980
X01975000Y01972480
X02050000Y01859980
X02308130Y01847480
X01746457Y01747283
X01746457Y02022874
X01234646Y02967756
X00939370Y02987441
X02562500Y03222480
X02789764Y03144921
X02850000Y03222480
X03468898Y03164606
X03498425Y03135079
X03498425Y03194134
X03537795Y02829961
X03577165Y02790591
X03340945Y02633110
X03537795Y02613425
X03222835Y02278780
X02837500Y02272480
T02
X01100000Y03072480
X01200000Y03072480
X01300000Y03072480
X01775000Y03072480
X01875000Y03072480
X01975000Y03072480
X02500000Y03072480
X02600000Y03072480
X02700000Y03072480
X01700000Y00622480
X01800000Y00622480
X01900000Y00622480
X02250000Y00622480
X02350000Y00622480
X02450000Y00622480
X02800000Y00622480
X02900000Y00622480
X03000000Y00622480
X03350000Y00622480
X03450000Y00622480
X03550000Y00622480
X03900000Y00622480
X04000000Y00622480
X04100000Y00622480
X04450000Y00622480
X04550000Y00622480
X04650000Y00622480
X04300000Y01072480
X04300000Y01172480
X04300000Y01272480
X01350000Y00622480
X01250000Y00622480
X01150000Y00622480
T03
X03685433Y03459882
X03685433Y03518937
X03685433Y03577992
X03754331Y03577992
T04
X00990000Y02822480
X01090000Y02822480
X01190000Y02822480
X01290000Y02822480
X01390000Y02822480
X01490000Y02822480
X01590000Y02822480
X01690000Y02822480
X01850000Y02822480
X01950000Y02822480
X02050000Y02822480
X02150000Y02822480
X02250000Y02822480
X02350000Y02822480
X02450000Y02822480
X02550000Y02822480
X02750000Y02822480
X02850000Y02822480
X02950000Y02822480
X03050000Y02822480
X03150000Y02822480
X03250000Y02822480
X03350000Y02822480
X03450000Y02822480
X03750000Y02822480
X03850000Y02822480
X03850000Y02722480
X03850000Y02622480
X03750000Y02622480
X03750000Y02722480
X03750000Y02522480
X03850000Y02522480
X03850000Y02422480
X03750000Y02422480
X03750000Y02322480
X03750000Y02222480
X03850000Y02222480
X03850000Y02322480
X03850000Y02122480
X03750000Y02122480
X03750000Y02022480
X03750000Y01922480
X03850000Y01922480
X03850000Y02022480
X03850000Y01822480
X03750000Y01822480
X03750000Y01722480
X03850000Y01722480
X03850000Y01622480
X03850000Y01522480
X03750000Y01522480
X03750000Y01622480
X03750000Y01422480
X03850000Y01422480
X03850000Y01322480
X03850000Y01222480
X03750000Y01222480
X03750000Y01322480
X03750000Y01122480
X03850000Y01122480
X03650000Y00922480
X03550000Y00922480
X03450000Y00922480
X03350000Y00922480
X03250000Y00922480
X03150000Y00922480
X03050000Y00922480
X02950000Y00922480
X02750000Y00922480
X02650000Y00922480
X02550000Y00922480
X02450000Y00922480
X02350000Y00922480
X02250000Y00922480
X02150000Y00922480
X02050000Y00922480
X01850000Y00922480
X01750000Y00922480
X01650000Y00922480
X01550000Y00922480
X01450000Y00922480
X01350000Y00922480
T05
X01050000Y03322480
X01200000Y03322480
X01350000Y03322480
X01500000Y03322480
X01750000Y03322480
X01900000Y03322480
X02050000Y03322480
X02200000Y03322480
X02450000Y03322480
X02600000Y03322480
X02750000Y03322480
X02900000Y03322480
X01747323Y02289173
X01650000Y00347480
X01800000Y00347480
X01950000Y00347480
X02200000Y00347480
X02350000Y00347480
X02500000Y00347480
X02750000Y00347480
X02900000Y00347480
X03050000Y00347480
X03300000Y00347480
X03450000Y00347480
X03600000Y00347480
X03850000Y00347480
X04000000Y00347480
X04150000Y00347480
X04400000Y00347480
X04550000Y00347480
X04700000Y00347480
X04575000Y00972480
X04575000Y01122480
X04575000Y01272480
X01400000Y00347480
X01250000Y00347480
X01100000Y00347480
T06
X03169728Y03321102
X03369728Y03321102
X03569728Y03321102
X03769728Y03321102
X04362500Y03344823
X04361417Y03256240
X04362500Y03168740
X04648917Y02903091
X04650000Y02824350
X04571260Y02823268
X04651083Y02745610
X04728740Y02823268
T07
X01747323Y01458465
M30
