G75*
%MOIN*%
%OFA0B0*%
%FSLAX25Y25*%
%IPPOS*%
%LPD*%
%AMOC8*
5,1,8,0,0,1.08239X$1,22.5*
%
%ADD10C,0.00000*%
%ADD11R,0.05118X0.06299*%
%ADD12R,0.04800X0.08800*%
%ADD13R,0.14173X0.08661*%
%ADD14R,0.08000X0.02600*%
%ADD15R,0.07087X0.01575*%
%ADD16R,0.11024X0.07874*%
%ADD17R,0.15748X0.02756*%
%ADD18R,0.15748X0.04724*%
%ADD19R,0.04921X0.03937*%
%ADD20R,0.03150X0.03543*%
%ADD21R,0.03543X0.03150*%
%ADD22R,0.06299X0.05118*%
%ADD23R,0.05512X0.03937*%
%ADD24R,0.03937X0.05512*%
%ADD25R,0.05000X0.05787*%
%ADD26R,0.23622X0.27559*%
%ADD27R,0.06299X0.07098*%
%ADD28R,0.05118X0.05906*%
%ADD29R,0.09055X0.06299*%
%ADD30R,0.01575X0.04724*%
%ADD31R,0.12598X0.09843*%
D10*
X0090000Y0017248D02*
X0090000Y0352248D01*
X0090004Y0352610D01*
X0090018Y0352973D01*
X0090039Y0353335D01*
X0090070Y0353696D01*
X0090109Y0354056D01*
X0090157Y0354415D01*
X0090214Y0354773D01*
X0090279Y0355130D01*
X0090353Y0355485D01*
X0090436Y0355838D01*
X0090527Y0356189D01*
X0090626Y0356537D01*
X0090734Y0356883D01*
X0090850Y0357227D01*
X0090975Y0357567D01*
X0091107Y0357904D01*
X0091248Y0358238D01*
X0091397Y0358569D01*
X0091554Y0358896D01*
X0091718Y0359219D01*
X0091890Y0359538D01*
X0092070Y0359852D01*
X0092258Y0360163D01*
X0092453Y0360468D01*
X0092655Y0360769D01*
X0092865Y0361065D01*
X0093081Y0361355D01*
X0093305Y0361641D01*
X0093535Y0361921D01*
X0093772Y0362195D01*
X0094016Y0362463D01*
X0094266Y0362726D01*
X0094522Y0362982D01*
X0094785Y0363232D01*
X0095053Y0363476D01*
X0095327Y0363713D01*
X0095607Y0363943D01*
X0095893Y0364167D01*
X0096183Y0364383D01*
X0096479Y0364593D01*
X0096780Y0364795D01*
X0097085Y0364990D01*
X0097396Y0365178D01*
X0097710Y0365358D01*
X0098029Y0365530D01*
X0098352Y0365694D01*
X0098679Y0365851D01*
X0099010Y0366000D01*
X0099344Y0366141D01*
X0099681Y0366273D01*
X0100021Y0366398D01*
X0100365Y0366514D01*
X0100711Y0366622D01*
X0101059Y0366721D01*
X0101410Y0366812D01*
X0101763Y0366895D01*
X0102118Y0366969D01*
X0102475Y0367034D01*
X0102833Y0367091D01*
X0103192Y0367139D01*
X0103552Y0367178D01*
X0103913Y0367209D01*
X0104275Y0367230D01*
X0104638Y0367244D01*
X0105000Y0367248D01*
X0468110Y0367248D01*
X0468472Y0367244D01*
X0468835Y0367230D01*
X0469197Y0367209D01*
X0469558Y0367178D01*
X0469918Y0367139D01*
X0470277Y0367091D01*
X0470635Y0367034D01*
X0470992Y0366969D01*
X0471347Y0366895D01*
X0471700Y0366812D01*
X0472051Y0366721D01*
X0472399Y0366622D01*
X0472745Y0366514D01*
X0473089Y0366398D01*
X0473429Y0366273D01*
X0473766Y0366141D01*
X0474100Y0366000D01*
X0474431Y0365851D01*
X0474758Y0365694D01*
X0475081Y0365530D01*
X0475400Y0365358D01*
X0475714Y0365178D01*
X0476025Y0364990D01*
X0476330Y0364795D01*
X0476631Y0364593D01*
X0476927Y0364383D01*
X0477217Y0364167D01*
X0477503Y0363943D01*
X0477783Y0363713D01*
X0478057Y0363476D01*
X0478325Y0363232D01*
X0478588Y0362982D01*
X0478844Y0362726D01*
X0479094Y0362463D01*
X0479338Y0362195D01*
X0479575Y0361921D01*
X0479805Y0361641D01*
X0480029Y0361355D01*
X0480245Y0361065D01*
X0480455Y0360769D01*
X0480657Y0360468D01*
X0480852Y0360163D01*
X0481040Y0359852D01*
X0481220Y0359538D01*
X0481392Y0359219D01*
X0481556Y0358896D01*
X0481713Y0358569D01*
X0481862Y0358238D01*
X0482003Y0357904D01*
X0482135Y0357567D01*
X0482260Y0357227D01*
X0482376Y0356883D01*
X0482484Y0356537D01*
X0482583Y0356189D01*
X0482674Y0355838D01*
X0482757Y0355485D01*
X0482831Y0355130D01*
X0482896Y0354773D01*
X0482953Y0354415D01*
X0483001Y0354056D01*
X0483040Y0353696D01*
X0483071Y0353335D01*
X0483092Y0352973D01*
X0483106Y0352610D01*
X0483110Y0352248D01*
X0483110Y0017248D01*
X0483106Y0016886D01*
X0483092Y0016523D01*
X0483071Y0016161D01*
X0483040Y0015800D01*
X0483001Y0015440D01*
X0482953Y0015081D01*
X0482896Y0014723D01*
X0482831Y0014366D01*
X0482757Y0014011D01*
X0482674Y0013658D01*
X0482583Y0013307D01*
X0482484Y0012959D01*
X0482376Y0012613D01*
X0482260Y0012269D01*
X0482135Y0011929D01*
X0482003Y0011592D01*
X0481862Y0011258D01*
X0481713Y0010927D01*
X0481556Y0010600D01*
X0481392Y0010277D01*
X0481220Y0009958D01*
X0481040Y0009644D01*
X0480852Y0009333D01*
X0480657Y0009028D01*
X0480455Y0008727D01*
X0480245Y0008431D01*
X0480029Y0008141D01*
X0479805Y0007855D01*
X0479575Y0007575D01*
X0479338Y0007301D01*
X0479094Y0007033D01*
X0478844Y0006770D01*
X0478588Y0006514D01*
X0478325Y0006264D01*
X0478057Y0006020D01*
X0477783Y0005783D01*
X0477503Y0005553D01*
X0477217Y0005329D01*
X0476927Y0005113D01*
X0476631Y0004903D01*
X0476330Y0004701D01*
X0476025Y0004506D01*
X0475714Y0004318D01*
X0475400Y0004138D01*
X0475081Y0003966D01*
X0474758Y0003802D01*
X0474431Y0003645D01*
X0474100Y0003496D01*
X0473766Y0003355D01*
X0473429Y0003223D01*
X0473089Y0003098D01*
X0472745Y0002982D01*
X0472399Y0002874D01*
X0472051Y0002775D01*
X0471700Y0002684D01*
X0471347Y0002601D01*
X0470992Y0002527D01*
X0470635Y0002462D01*
X0470277Y0002405D01*
X0469918Y0002357D01*
X0469558Y0002318D01*
X0469197Y0002287D01*
X0468835Y0002266D01*
X0468472Y0002252D01*
X0468110Y0002248D01*
X0105000Y0002248D01*
X0104638Y0002252D01*
X0104275Y0002266D01*
X0103913Y0002287D01*
X0103552Y0002318D01*
X0103192Y0002357D01*
X0102833Y0002405D01*
X0102475Y0002462D01*
X0102118Y0002527D01*
X0101763Y0002601D01*
X0101410Y0002684D01*
X0101059Y0002775D01*
X0100711Y0002874D01*
X0100365Y0002982D01*
X0100021Y0003098D01*
X0099681Y0003223D01*
X0099344Y0003355D01*
X0099010Y0003496D01*
X0098679Y0003645D01*
X0098352Y0003802D01*
X0098029Y0003966D01*
X0097710Y0004138D01*
X0097396Y0004318D01*
X0097085Y0004506D01*
X0096780Y0004701D01*
X0096479Y0004903D01*
X0096183Y0005113D01*
X0095893Y0005329D01*
X0095607Y0005553D01*
X0095327Y0005783D01*
X0095053Y0006020D01*
X0094785Y0006264D01*
X0094522Y0006514D01*
X0094266Y0006770D01*
X0094016Y0007033D01*
X0093772Y0007301D01*
X0093535Y0007575D01*
X0093305Y0007855D01*
X0093081Y0008141D01*
X0092865Y0008431D01*
X0092655Y0008727D01*
X0092453Y0009028D01*
X0092258Y0009333D01*
X0092070Y0009644D01*
X0091890Y0009958D01*
X0091718Y0010277D01*
X0091554Y0010600D01*
X0091397Y0010927D01*
X0091248Y0011258D01*
X0091107Y0011592D01*
X0090975Y0011929D01*
X0090850Y0012269D01*
X0090734Y0012613D01*
X0090626Y0012959D01*
X0090527Y0013307D01*
X0090436Y0013658D01*
X0090353Y0014011D01*
X0090279Y0014366D01*
X0090214Y0014723D01*
X0090157Y0015081D01*
X0090109Y0015440D01*
X0090070Y0015800D01*
X0090039Y0016161D01*
X0090018Y0016523D01*
X0090004Y0016886D01*
X0090000Y0017248D01*
X0171582Y0145846D02*
X0171584Y0145958D01*
X0171590Y0146069D01*
X0171600Y0146181D01*
X0171614Y0146292D01*
X0171631Y0146402D01*
X0171653Y0146512D01*
X0171679Y0146621D01*
X0171708Y0146729D01*
X0171741Y0146835D01*
X0171778Y0146941D01*
X0171819Y0147045D01*
X0171864Y0147148D01*
X0171912Y0147249D01*
X0171963Y0147348D01*
X0172018Y0147445D01*
X0172077Y0147540D01*
X0172138Y0147634D01*
X0172203Y0147725D01*
X0172272Y0147813D01*
X0172343Y0147899D01*
X0172417Y0147983D01*
X0172495Y0148063D01*
X0172575Y0148141D01*
X0172658Y0148217D01*
X0172743Y0148289D01*
X0172831Y0148358D01*
X0172921Y0148424D01*
X0173014Y0148486D01*
X0173109Y0148546D01*
X0173206Y0148602D01*
X0173304Y0148654D01*
X0173405Y0148703D01*
X0173507Y0148748D01*
X0173611Y0148790D01*
X0173716Y0148828D01*
X0173823Y0148862D01*
X0173930Y0148892D01*
X0174039Y0148919D01*
X0174148Y0148941D01*
X0174259Y0148960D01*
X0174369Y0148975D01*
X0174481Y0148986D01*
X0174592Y0148993D01*
X0174704Y0148996D01*
X0174816Y0148995D01*
X0174928Y0148990D01*
X0175039Y0148981D01*
X0175150Y0148968D01*
X0175261Y0148951D01*
X0175371Y0148931D01*
X0175480Y0148906D01*
X0175588Y0148878D01*
X0175695Y0148845D01*
X0175801Y0148809D01*
X0175905Y0148769D01*
X0176008Y0148726D01*
X0176110Y0148679D01*
X0176209Y0148628D01*
X0176307Y0148574D01*
X0176403Y0148516D01*
X0176497Y0148455D01*
X0176588Y0148391D01*
X0176677Y0148324D01*
X0176764Y0148253D01*
X0176848Y0148179D01*
X0176930Y0148103D01*
X0177008Y0148023D01*
X0177084Y0147941D01*
X0177157Y0147856D01*
X0177227Y0147769D01*
X0177293Y0147679D01*
X0177357Y0147587D01*
X0177417Y0147493D01*
X0177474Y0147397D01*
X0177527Y0147298D01*
X0177577Y0147198D01*
X0177623Y0147097D01*
X0177666Y0146993D01*
X0177705Y0146888D01*
X0177740Y0146782D01*
X0177771Y0146675D01*
X0177799Y0146566D01*
X0177822Y0146457D01*
X0177842Y0146347D01*
X0177858Y0146236D01*
X0177870Y0146125D01*
X0177878Y0146014D01*
X0177882Y0145902D01*
X0177882Y0145790D01*
X0177878Y0145678D01*
X0177870Y0145567D01*
X0177858Y0145456D01*
X0177842Y0145345D01*
X0177822Y0145235D01*
X0177799Y0145126D01*
X0177771Y0145017D01*
X0177740Y0144910D01*
X0177705Y0144804D01*
X0177666Y0144699D01*
X0177623Y0144595D01*
X0177577Y0144494D01*
X0177527Y0144394D01*
X0177474Y0144295D01*
X0177417Y0144199D01*
X0177357Y0144105D01*
X0177293Y0144013D01*
X0177227Y0143923D01*
X0177157Y0143836D01*
X0177084Y0143751D01*
X0177008Y0143669D01*
X0176930Y0143589D01*
X0176848Y0143513D01*
X0176764Y0143439D01*
X0176677Y0143368D01*
X0176588Y0143301D01*
X0176497Y0143237D01*
X0176403Y0143176D01*
X0176307Y0143118D01*
X0176209Y0143064D01*
X0176110Y0143013D01*
X0176008Y0142966D01*
X0175905Y0142923D01*
X0175801Y0142883D01*
X0175695Y0142847D01*
X0175588Y0142814D01*
X0175480Y0142786D01*
X0175371Y0142761D01*
X0175261Y0142741D01*
X0175150Y0142724D01*
X0175039Y0142711D01*
X0174928Y0142702D01*
X0174816Y0142697D01*
X0174704Y0142696D01*
X0174592Y0142699D01*
X0174481Y0142706D01*
X0174369Y0142717D01*
X0174259Y0142732D01*
X0174148Y0142751D01*
X0174039Y0142773D01*
X0173930Y0142800D01*
X0173823Y0142830D01*
X0173716Y0142864D01*
X0173611Y0142902D01*
X0173507Y0142944D01*
X0173405Y0142989D01*
X0173304Y0143038D01*
X0173206Y0143090D01*
X0173109Y0143146D01*
X0173014Y0143206D01*
X0172921Y0143268D01*
X0172831Y0143334D01*
X0172743Y0143403D01*
X0172658Y0143475D01*
X0172575Y0143551D01*
X0172495Y0143629D01*
X0172417Y0143709D01*
X0172343Y0143793D01*
X0172272Y0143879D01*
X0172203Y0143967D01*
X0172138Y0144058D01*
X0172077Y0144152D01*
X0172018Y0144247D01*
X0171963Y0144344D01*
X0171912Y0144443D01*
X0171864Y0144544D01*
X0171819Y0144647D01*
X0171778Y0144751D01*
X0171741Y0144857D01*
X0171708Y0144963D01*
X0171679Y0145071D01*
X0171653Y0145180D01*
X0171631Y0145290D01*
X0171614Y0145400D01*
X0171600Y0145511D01*
X0171590Y0145623D01*
X0171584Y0145734D01*
X0171582Y0145846D01*
X0172567Y0228917D02*
X0172569Y0229010D01*
X0172575Y0229102D01*
X0172585Y0229194D01*
X0172599Y0229285D01*
X0172616Y0229376D01*
X0172638Y0229466D01*
X0172663Y0229555D01*
X0172692Y0229643D01*
X0172725Y0229729D01*
X0172762Y0229814D01*
X0172802Y0229898D01*
X0172846Y0229979D01*
X0172893Y0230059D01*
X0172943Y0230137D01*
X0172997Y0230212D01*
X0173054Y0230285D01*
X0173114Y0230355D01*
X0173177Y0230423D01*
X0173243Y0230488D01*
X0173311Y0230550D01*
X0173382Y0230610D01*
X0173456Y0230666D01*
X0173532Y0230719D01*
X0173610Y0230768D01*
X0173690Y0230815D01*
X0173772Y0230857D01*
X0173856Y0230897D01*
X0173941Y0230932D01*
X0174028Y0230964D01*
X0174116Y0230993D01*
X0174205Y0231017D01*
X0174295Y0231038D01*
X0174386Y0231054D01*
X0174478Y0231067D01*
X0174570Y0231076D01*
X0174663Y0231081D01*
X0174755Y0231082D01*
X0174848Y0231079D01*
X0174940Y0231072D01*
X0175032Y0231061D01*
X0175123Y0231046D01*
X0175214Y0231028D01*
X0175304Y0231005D01*
X0175392Y0230979D01*
X0175480Y0230949D01*
X0175566Y0230915D01*
X0175650Y0230878D01*
X0175733Y0230836D01*
X0175814Y0230792D01*
X0175894Y0230744D01*
X0175971Y0230693D01*
X0176045Y0230638D01*
X0176118Y0230580D01*
X0176188Y0230520D01*
X0176255Y0230456D01*
X0176319Y0230390D01*
X0176381Y0230320D01*
X0176439Y0230249D01*
X0176494Y0230175D01*
X0176546Y0230098D01*
X0176595Y0230019D01*
X0176641Y0229939D01*
X0176683Y0229856D01*
X0176721Y0229772D01*
X0176756Y0229686D01*
X0176787Y0229599D01*
X0176814Y0229511D01*
X0176837Y0229421D01*
X0176857Y0229331D01*
X0176873Y0229240D01*
X0176885Y0229148D01*
X0176893Y0229056D01*
X0176897Y0228963D01*
X0176897Y0228871D01*
X0176893Y0228778D01*
X0176885Y0228686D01*
X0176873Y0228594D01*
X0176857Y0228503D01*
X0176837Y0228413D01*
X0176814Y0228323D01*
X0176787Y0228235D01*
X0176756Y0228148D01*
X0176721Y0228062D01*
X0176683Y0227978D01*
X0176641Y0227895D01*
X0176595Y0227815D01*
X0176546Y0227736D01*
X0176494Y0227659D01*
X0176439Y0227585D01*
X0176381Y0227514D01*
X0176319Y0227444D01*
X0176255Y0227378D01*
X0176188Y0227314D01*
X0176118Y0227254D01*
X0176045Y0227196D01*
X0175971Y0227141D01*
X0175894Y0227090D01*
X0175815Y0227042D01*
X0175733Y0226998D01*
X0175650Y0226956D01*
X0175566Y0226919D01*
X0175480Y0226885D01*
X0175392Y0226855D01*
X0175304Y0226829D01*
X0175214Y0226806D01*
X0175123Y0226788D01*
X0175032Y0226773D01*
X0174940Y0226762D01*
X0174848Y0226755D01*
X0174755Y0226752D01*
X0174663Y0226753D01*
X0174570Y0226758D01*
X0174478Y0226767D01*
X0174386Y0226780D01*
X0174295Y0226796D01*
X0174205Y0226817D01*
X0174116Y0226841D01*
X0174028Y0226870D01*
X0173941Y0226902D01*
X0173856Y0226937D01*
X0173772Y0226977D01*
X0173690Y0227019D01*
X0173610Y0227066D01*
X0173532Y0227115D01*
X0173456Y0227168D01*
X0173382Y0227224D01*
X0173311Y0227284D01*
X0173243Y0227346D01*
X0173177Y0227411D01*
X0173114Y0227479D01*
X0173054Y0227549D01*
X0172997Y0227622D01*
X0172943Y0227697D01*
X0172893Y0227775D01*
X0172846Y0227855D01*
X0172802Y0227936D01*
X0172762Y0228020D01*
X0172725Y0228105D01*
X0172692Y0228191D01*
X0172663Y0228279D01*
X0172638Y0228368D01*
X0172616Y0228458D01*
X0172599Y0228549D01*
X0172585Y0228640D01*
X0172575Y0228732D01*
X0172569Y0228824D01*
X0172567Y0228917D01*
D11*
X0234260Y0227248D03*
X0241740Y0227248D03*
X0238687Y0180248D03*
X0230813Y0180248D03*
X0294157Y0137171D03*
X0301638Y0137171D03*
X0326439Y0174500D03*
X0334313Y0174500D03*
X0417760Y0167248D03*
X0425240Y0167248D03*
X0439063Y0165998D03*
X0446937Y0165998D03*
X0459142Y0160248D03*
X0467016Y0160248D03*
X0450687Y0203748D03*
X0442813Y0203748D03*
X0469063Y0222748D03*
X0476937Y0222748D03*
X0297677Y0294748D03*
X0290197Y0294748D03*
X0253740Y0294748D03*
X0246260Y0294748D03*
X0225709Y0294748D03*
X0218228Y0294748D03*
X0183740Y0294748D03*
X0176260Y0294748D03*
X0155709Y0294748D03*
X0148228Y0294748D03*
X0116240Y0294748D03*
X0108760Y0294748D03*
X0218281Y0115998D03*
X0226156Y0115998D03*
X0236031Y0116248D03*
X0243906Y0116248D03*
X0243740Y0077248D03*
X0236260Y0077248D03*
X0213740Y0077248D03*
X0206260Y0077248D03*
X0188740Y0077248D03*
X0181260Y0077248D03*
X0158740Y0077248D03*
X0151260Y0077248D03*
X0133740Y0077248D03*
X0126260Y0077248D03*
X0103740Y0077248D03*
X0096260Y0077248D03*
X0261260Y0077248D03*
X0268740Y0077248D03*
X0291260Y0077248D03*
X0298740Y0077248D03*
X0316260Y0077248D03*
X0323740Y0077248D03*
X0346260Y0077248D03*
X0353740Y0077248D03*
X0371260Y0077248D03*
X0378740Y0077248D03*
X0401260Y0077248D03*
X0408740Y0077248D03*
X0426260Y0077248D03*
X0433740Y0077248D03*
X0456260Y0077248D03*
X0463740Y0077248D03*
D12*
X0239350Y0128298D03*
X0230250Y0128298D03*
X0221150Y0128298D03*
D13*
X0230250Y0152699D03*
D14*
X0231900Y0188248D03*
X0231900Y0193248D03*
X0231900Y0198248D03*
X0231900Y0203248D03*
X0231900Y0208248D03*
X0231900Y0213248D03*
X0231900Y0218248D03*
X0256100Y0218248D03*
X0256100Y0213248D03*
X0256100Y0208248D03*
X0256100Y0203248D03*
X0256100Y0198248D03*
X0256100Y0193248D03*
X0256100Y0188248D03*
D15*
X0311189Y0162764D03*
X0311189Y0160205D03*
X0311189Y0157646D03*
X0311189Y0155087D03*
X0311189Y0152528D03*
X0311189Y0149969D03*
X0311189Y0147409D03*
X0311189Y0144850D03*
X0311189Y0142291D03*
X0311189Y0139732D03*
X0334811Y0139732D03*
X0334811Y0142291D03*
X0334811Y0144850D03*
X0334811Y0147409D03*
X0334811Y0149969D03*
X0334811Y0152528D03*
X0334811Y0155087D03*
X0334811Y0157646D03*
X0334811Y0160205D03*
X0334811Y0162764D03*
D16*
X0179457Y0137185D03*
X0097173Y0127736D03*
X0097173Y0237579D03*
X0179063Y0237972D03*
D17*
X0186543Y0231280D03*
X0186543Y0226555D03*
X0186543Y0221437D03*
D18*
X0186543Y0215138D03*
X0186543Y0205295D03*
X0186543Y0195453D03*
X0186543Y0185610D03*
X0186543Y0175768D03*
X0186543Y0165925D03*
X0186543Y0156083D03*
X0186543Y0146240D03*
D19*
X0294250Y0152295D03*
X0294250Y0158201D03*
D20*
X0316260Y0066185D03*
X0323740Y0066185D03*
X0320000Y0058311D03*
X0371260Y0066185D03*
X0378740Y0066185D03*
X0375000Y0058311D03*
X0426260Y0066185D03*
X0433740Y0066185D03*
X0430000Y0058311D03*
X0268740Y0066185D03*
X0261260Y0066185D03*
X0265000Y0058311D03*
X0213740Y0066185D03*
X0206260Y0066185D03*
X0210000Y0058311D03*
X0158740Y0066185D03*
X0151260Y0066185D03*
X0155000Y0058311D03*
X0103740Y0066185D03*
X0096260Y0066185D03*
X0100000Y0058311D03*
X0148228Y0303311D03*
X0155709Y0303311D03*
X0151969Y0311185D03*
X0218228Y0303311D03*
X0225709Y0303311D03*
X0221969Y0311185D03*
X0290197Y0303311D03*
X0297677Y0303311D03*
X0293937Y0311185D03*
D21*
X0426063Y0095988D03*
X0433937Y0092248D03*
X0426063Y0088508D03*
D22*
X0415000Y0088508D03*
X0415000Y0095988D03*
X0415000Y0123508D03*
X0415000Y0130988D03*
X0429750Y0176311D03*
X0429750Y0184185D03*
X0428500Y0197008D03*
X0428500Y0204488D03*
X0422500Y0213311D03*
X0422500Y0221185D03*
X0417000Y0204488D03*
X0417000Y0197008D03*
X0442000Y0212508D03*
X0442000Y0219988D03*
X0461500Y0223238D03*
X0461500Y0215758D03*
X0211250Y0203685D03*
X0211250Y0195811D03*
D23*
X0410138Y0113488D03*
X0410138Y0106008D03*
X0418799Y0109748D03*
D24*
X0441260Y0081579D03*
X0448740Y0081579D03*
X0445000Y0072917D03*
X0393740Y0081579D03*
X0386260Y0081579D03*
X0390000Y0072917D03*
X0338740Y0081579D03*
X0331260Y0081579D03*
X0335000Y0072917D03*
X0283740Y0081579D03*
X0276260Y0081579D03*
X0280000Y0072917D03*
X0228740Y0081579D03*
X0221260Y0081579D03*
X0225000Y0072917D03*
X0173740Y0081579D03*
X0166260Y0081579D03*
X0170000Y0072917D03*
X0118740Y0081579D03*
X0111260Y0081579D03*
X0115000Y0072917D03*
X0134665Y0292386D03*
X0142146Y0292386D03*
X0138406Y0301047D03*
X0202165Y0292386D03*
X0209646Y0292386D03*
X0205906Y0301047D03*
X0276102Y0292386D03*
X0283583Y0292386D03*
X0279843Y0301047D03*
D25*
X0412756Y0231343D03*
X0429685Y0231343D03*
D26*
X0417047Y0257878D03*
X0465000Y0257878D03*
X0465000Y0328744D03*
X0417047Y0328744D03*
D27*
X0457783Y0232776D03*
X0468980Y0232776D03*
D28*
X0448205Y0232717D03*
X0440724Y0232717D03*
D29*
X0122116Y0105909D03*
X0097313Y0105909D03*
D30*
X0436661Y0181130D03*
X0439220Y0181130D03*
X0441780Y0181130D03*
X0444339Y0181130D03*
X0444339Y0191366D03*
X0441780Y0191366D03*
X0439220Y0191366D03*
X0436661Y0191366D03*
D31*
X0471594Y0195469D03*
X0471594Y0173028D03*
M02*
